<?xml version="1.0" encoding="utf-8"?>
<!-- Generator: Adobe Illustrator 21.0.0, SVG Export Plug-In . SVG Version: 6.00 Build 0)  -->
<svg version="1.1" xmlns="http://www.w3.org/2000/svg" xmlns:xlink="http://www.w3.org/1999/xlink" x="0px" y="0px"
	 viewBox="0 0 1514 1287" style="enable-background:new 0 0 1514 1287;" xml:space="preserve">
<style type="text/css">
	.st0{display:none;}
	.st1{display:inline;fill:#646464;}
	.st2{fill:#36AE3D;}
	.st3{fill:#E5E5E5;}
	.st4{fill:#E0E0E0;}
	.st5{fill:#E8E8E8;}
	.st6{fill:#FEFEFE;}
	.st7{fill:#9EECA1;}
	.st8{fill:#A9F9B3;}
	.st9{fill:#C0F2A8;}
	.st10{fill:#ADEEAF;}
	.st11{fill:#AEEEB0;}
</style>
<g id="Layer_2" class="st0">
	<rect x="46" class="st1" width="1446" height="1259"/>
</g>
<g id="Layer_3">
	<g>
		<path class="st2" d="M1072.1,654.8c-0.2,185.9-151.1,336.5-336.9,336.2c-185.9-0.3-336.5-151.3-336.1-337
			c0.4-186,151.5-336.5,337.2-335.9C922.1,318.6,1072.3,469.3,1072.1,654.8z"/>
		<path class="st3" d="M1040,888c6.1-9,12.3-18,18.4-27.1c2.8-4.1,5.2-8.5,7.7-12.8c9.9-17.9,19-36.2,26-55.5
			c1.4-1.5,1.4-3.7,2.7-5.2c4.3-11.6,8.2-23.2,10.9-35.3c2.5-7.2,4.4-14.6,4.9-22.3c0.1-0.5,0.2-1.1,0.3-1.6
			c1.7-10.6,4.5-21.1,4.2-32c0-0.6,0.1-1.1,0.2-1.7c2.2-6.8,1.2-13.9,2.2-20.8c0.3-17.8-0.4-35.5-2-53.2c-1.1-12.9-3.5-25.6-5-38.5
			c-0.3-2.9-1.5-5.8-2.2-8.7c-0.5-3.7-0.1-7.6-1.7-11.3c-0.8-1.8,0.2-3.6,1.3-5.1c9.2-13.3,17.1-27.3,25.3-41.2
			c1.1-1.9,2.2-3.8,4.9-3.4c1.6,0.6,1.3,2,1.4,3.2c1.2,2.7,2,5.5,3.2,8.2c1.7,3.4,2.2,7.3,3.6,10.8c4.4,4.7,8.7,9.5,13.8,13.4
			c14.3,13.4,28.6,26.7,42.8,40.1c6.1,5.7,8.6,13.1,9.6,21.2c2.4,21.1,2.1,42.3,1.9,63.5c-1,7.3,0,14.7-1.3,22.1
			c-0.7,3.8-1.6,7.7-1.2,11.7c-1.3,6.3-2.3,12.6-3,18.9c-1,8.3-2.2,16.5-3.9,24.7c-0.1,0.5-0.2,1.1-0.5,1.6
			c-0.6,4.8-3.2,9.2-2.5,14.2c-1.6,5.9-3,11.8-4.5,17.7c-5.3,16.8-10.5,33.6-17,50c-6,13.8-11.4,27.9-19,41
			c-2.3,4.5-5.9,7.6-10.4,9.7c-2,0.3-3.5,1.6-5.3,2.5c-5.2,1.4-10.6,2.5-15.8,3.9c-3.7,1.3-7.6,1.3-11.4,2.1
			c-10.5,1.2-20.9,3.3-31.3,4.6c-13.1,1.7-26.2,3.4-39.4,3.9C1039.4,901.8,1036.1,896,1040,888z"/>
		<path class="st3" d="M424,360c1-1,2-2,2.9-3c16.8-17,34.7-32.7,54-46.8c2-1.5,3.8-3.2,5.6-4.9c18.7-13,37.9-25,58.6-34.7
			c6.6-2,12.3-6,18.8-8c4.9-2,9.7-4.4,14.8-6c4.7-2.2,9.7-3.6,14.4-5.8c0.4-0.2,0.8-0.4,1.3-0.6c1.9-0.8,4.1-0.8,6-1.9
			c4.9-1.8,9.6-4.2,14.9-4.7c3.4-0.2,6.4-2.3,9.8-2.6c6.5-1.9,13.2-2.8,19.6-4.8c18.3-4,37-5.7,55.6-7.9c5.3-0.6,10.6,0.2,15.9-1
			c11,0,22,0,32.9,0c14,1.6,28.2,0.8,42.1,3.3c10.4,1.9,21,3.3,31.4,5.3c4.1,0.5,7.8,2.5,12,2.7c6.1,1,12.1,2.7,18,4.7
			c3.2,0.8,6.1,2.6,9.5,2.9c0.5,0.1,0.9,0.2,1.3,0.4c1.7,0.9,3.5,1.3,5.3,1.9c7.2,1.9,14,4.9,21.1,7.1c2,0.5,3.6,1.7,5.5,2.5
			c0.1,0.5,0,1-0.4,1.4c-3,1.6-5.5-0.5-8.1-1.3c-3.2-1-5.2-0.7-5.6,3c-1.2,10.4-3.5,20.6-5.7,30.9c-0.6,2.7,0.5,4.4,3.1,5.4
			c3.9,1.4,7.7,3.2,11.5,4.8c1.8,0.8,3.9,1.2,4.2,3.7c-0.8,0.9-1.9,0.6-2.9,0.6c-4.3-1.3-8.4-3.3-12.4-5.4
			c-22.2-9.4-45.3-16.2-68.9-20.9c-36.5-7.2-73.2-9.2-110.3-6c-46.5,4.1-90.6,16.8-132.7,36.8c-3.6,1.6-7.3,3.3-10.6,5.5
			c-3,1.9-6.1,3.6-9.3,5.2c-9,3.8-16.9,9.5-25.1,14.8c-10.5,6.8-20.6,14.3-30,22.5c-4.7,4-9.3,8-14,12c-10.6,9.5-20.5,19.5-30,30
			c-11.7,13.8-22.9,28-33,42.9c-7.5,11.4-14.7,22.9-20.7,35.1c-3.4,7.8-7.5,15.3-10.9,23.1c-2.8,6.8-5.9,13.6-8.1,20.6
			c-2.9,5.8-4.2,12.2-6.8,18.2c-0.3,3.5-2.9,6.3-3.1,9.8c-0.4,2.5-0.9,5-2.2,7.3c-0.4,0.3-0.9,0.5-1.4,0.7c-6.8-0.8-12.4-4.4-18.5-7
			c-8.6-3.6-16.7-8.2-25.4-11.6c-0.2-0.3-0.4-0.7-0.2-0.9c6.2-5.9,7.3-14,9.7-21.6c0.3-0.9,0.9-1.7,1.2-2.7
			c2.8-7.8,5.5-15.6,8.8-23.1c6.9-14.9,13.6-29.9,21.6-44.2c7.9-12.4,15.1-25.3,23.7-37.3c9-12.5,18.5-24.7,28.5-36.4
			C415.5,369.2,420.4,365.2,424,360z"/>
		<path class="st4" d="M894,306.2c-5.2-4-11.5-5.5-17.4-8c-2.2-1-3.5-1.6-2.7-4.5c1.4-5.4,1.8-11,3.3-16.4c1.6-5.9,1.5-12.1,3-18
			c0.7-2.5,0.8-5.1,5.2-2.9c2.8,1.4,6.1,3.3,9.7,2.8c2.4-1.2,4,1.1,6,1.5c2.6,1.8,5.5,2.7,8.4,3.9c6,2.8,12,5.7,18,8.6
			c4.6,1.4,8.8,3.9,12.8,6.5c13,7.9,26.1,15.7,38.7,24.1c9.8,5.8,18.5,13.3,27.4,20.3c8,6.2,15.2,13.3,22.6,20.1
			c13,12.7,25.8,25.6,37,39.9c11.1,14.4,22,28.9,31.7,44.4c7.1,11.3,13.6,23,19.7,34.9c6.6,12.3,12.1,25.1,17.1,38.2
			c1.4,3.8,3.7,7.3,3.6,11.5c-4.2,0.8-4.6,5-6.3,7.7c-7,12-13.9,24-21.9,35.5c-1.7,2.5-3.3,4.5-1.3,8c1.2,2,0.3,5.2,0.4,7.9
			c-0.5,0.3-1,0.3-1.3-0.3c-0.6-6-2.7-11.7-4.1-17.6c-0.6-2-0.2-4.1-1.1-6c-2.4-6.3-3.7-13-6.1-19.3c-0.7-1.7-1.1-3.5-2.3-4.9l0,0
			c-0.2-3.1-2.7-5.4-2.5-8.6c-3.2-6.5-5-13.6-9.1-19.8c-2.2-4.5-4.1-9.2-6.7-13.4c-5.9-10-11.3-20.2-17.5-30
			c-9.1-14.5-19.2-28.2-29.9-41.4c-3.8-4.6-8-8.8-11.7-13.4c-0.2-2.3-2.1-3.3-3.4-4.7c-15-15.5-30.9-30.1-48.2-43.1
			c-1.5-0.3-2.2-1.6-3.3-2.4c-5.1-3.1-9.6-6.9-14.7-9.9c-3.5-2.6-7.3-4.7-11-7c-2.9-1.8-6-3.4-8.9-5.4c-0.4-0.3-0.7-0.6-1.1-0.9
			c-3.9-1.5-7.3-4-11-6c-6.3-3.3-12.7-6.6-19-9.9C895.7,307.2,893.6,307.9,894,306.2z"/>
		<path class="st5" d="M405,852.1c6.5,11.5,13.9,22.5,22,32.9c4.6,6.2,5.1,9.8,1.7,14.5c-3.4,3.2-7.8,2.7-11.8,2.4
			c-15.2-1.2-30.2-3.1-45.3-5c-3.6-1.3-7.4-1.7-11.2-2.1c-12.3-2-24.5-4.4-36.5-7.5c-6.4-1.6-12-5.5-15.7-11.5
			c-6.2-10-10.5-21-15.5-31.5c-4.7-10-8.4-20.5-12-30.9c-0.3-2-2.1-3.5-2-5.7c-2.9-9.4-5.6-18.9-8.6-28.3c-0.6-1.8-0.8-3.5-1.2-5.3
			c0-2.9-1.7-5.4-2.1-8.3c-0.1-3.8-1.8-7.2-2.5-10.8c-0.2-2.1,0-4.2-0.4-6.3c0.1-2.3-0.1-4.6-1.4-6.6c-0.2-0.7-0.3-1.5-0.3-2.3
			c-0.1-4.9-0.7-9.7-2.3-14.3c-0.2-0.5-0.4-0.9-0.5-1.4c-0.5-4.1-0.2-8.3-0.8-12.4c-0.2-1.2-0.5-2.5,0.5-3.3c1.3-1.1,2.5,0,3.6,0.6
			c7,4.2,13.4,9.2,20.2,13.7c21.4,14.3,43.8,27,66.9,38.6c6,3,12.7,5,18,9.5c3.3,6.7,4.7,14.1,8.1,20.8c1.8,3,2.4,6.5,3.9,9.6
			c0.5,5.1,3.4,9.2,5.4,13.6c3.7,8.4,7.8,16.6,12.3,24.7c0.2,0.4,0.7,0.7,1.1,1C400.6,844.3,403.2,848,405,852.1z"/>
		<path class="st6" d="M997.2,492.1c-2.3,8.2-7.1,11.9-15.5,11.9c-15.3,0-30.7,0.1-46,0c-4.6,0-8.2,1.5-10.3,5.6
			c-2.2,4.6-1.8,9.1,1.4,13.1c0.8,1,1.7,2,2.7,2.9c4.3,3.8,6.2,8.1,3.8,13.8c-2.6,6.2-7.1,9.4-13.9,9.5c-11.2,0.1-22.3,0-33.5,0
			c-8.1,0-10.7,3.2-8.6,10.8c6.1,22.2,10.8,44.6,14.1,67.3c6.7,45.9,9.1,91.7-0.6,137.5c-6.9,32.6-19.7,62.2-44.6,85.3
			c-24,22.2-53.1,33.5-84.9,37.6c-41,5.3-79.1-3.4-113.6-26.5c-14.4-9.6-26.6-21.6-34.9-37.1c-12.3-23-8.5-45.3,10.9-62.7
			c3.2-2.9,6.6-5.8,10.3-7.9c31.9-18.4,53.6-46.3,72.1-77.2c14.7-24.7,22.5-51.1,23.8-79.9c0.6-13.4,3.3-26.7,3.2-40.2
			c-0.1-22.5-4.1-44.3-10.3-65.8c-0.8-2.8,1.3-3,3.1-3.4c2.1-0.5,4.3-0.3,6.5-0.3c84.8,0,169.5,0,254.3,0c2.2,0,4.3-0.1,6.5,0.2
			C996.3,487.2,998.2,488.6,997.2,492.1z"/>
		<path class="st6" d="M710.9,494.1c5.7,20.4,9.5,41.1,9.7,62.4c0.1,9-0.6,17.9-1.7,26.9c-0.3,2.4-1.2,3.4-3.8,3.3
			c-63.5-2.8-122.5,14-178.8,41.9c-31.1,15.4-60.2,34.1-87.6,55.5c-1.3,1-2.6,2-4.7,3.5c3.4-12.7,7.2-24.3,12.2-35.4
			c2.6-1.9,3-5.1,4.5-7.6c12.4-20.1,26.7-38.5,42.9-55.7c25.9-27.5,56-49.1,90.1-65.1c32.2-15.1,65.9-25.1,101.4-29.1
			C700.5,494.1,705.7,492.8,710.9,494.1z"/>
		<path class="st7" d="M531.1,666.9c-10.6,0.7-21-1.8-31.7-1.4c5.9-5.8,14-7.8,19.6-13.5c8.5-4,17.5-6.3,26.4-9
			c36.7-11,74.2-18.4,112.4-22.2c12.5-1.3,25.1-2.5,37.8-2.3c6.4,0.1,12.8-2.1,19.3-0.5c-0.2,10.4-4.4,19.7-8,29.1
			c-0.7,1.8-2.4,2.2-3.9,2.8c-18.6,7.1-37.9,10.7-57.6,13.2c-12.8,1.7-25.7,2.4-38.6,3.7c-3,0.3-6,0-9,0c-4-0.5-8-0.9-12,0.2
			c-10.7,1.5-21.4,0.7-32.1,0.9c-1.7,0-3.3,0.1-4.8-0.9C543.1,666,537.1,666.4,531.1,666.9z"/>
		<path class="st8" d="M710.9,494.1c-12,1.6-24,2.6-36,4.8c-37.8,7.1-73.2,20.3-106.4,39.7c-19.7,11.5-37.4,25.3-53.8,41
			c-21.9,20.9-40.4,44.5-55.8,70.6c-0.6,1-0.6,2.9-2.7,2c13-32.3,30.3-62.1,53.3-88.4c32.1-36.8,71.2-63.3,117.5-79.1
			c23.1-7.9,46.9-12.3,71.3-13.7c3.5-0.2,5.5,0.8,6.7,4.3C707.1,481.5,710.1,487.5,710.9,494.1z"/>
		<path class="st9" d="M997.2,492.1c0-2.9-1.4-4.3-4.3-4.2c-1.2,0-2.3,0-3.5,0c-86.9,0-173.8,0-260.7,0.1c-2,0-4.9-1.5-5.7,2.1
			c-2.2-5.4-4.3-10.8-6.5-16.1c-1.1-2.6-0.1-3.2,2.3-3c0.8,0.1,1.7,0,2.5,0c86.9,0,173.7,0.2,260.6-0.2
			C993.4,470.8,1001.2,479,997.2,492.1z"/>
		<path class="st6" d="M715,618c-5.5,2.3-11.5,1.6-17.1,1.7c-56.3,1.8-111.2,11.5-164.8,28.7c-4.5,1.5-8.9,3.9-13.9,3.6
			c-0.4-2.4,1.8-2.6,3.1-3.2c48.5-27.1,99.6-46.1,155.4-51c12.3-1.1,24.6-0.7,36.8-0.9c2.7-0.1,3.2,0.8,3.1,3.4
			C717.1,606.3,716.1,612.2,715,618z"/>
		<path class="st10" d="M531.1,666.9c6-1.4,12-1.6,18,0.2C543.1,667,537.1,667,531.1,666.9z"/>
		<path class="st11" d="M586,667.1c4-1.8,8-1.5,12-0.2C594,667,590,667,586,667.1z"/>
		<path class="st4" d="M362.1,563.1c-2.7,2.2-2.1,5.2-2,8c-1,4.6-2,9.3-3,13.9c-1.3,0.7-1.8,2-1.9,3.3c-1.1,9.2-2.1,18.5-3.1,27.7
			c-2.6,12.2-2.2,24.6-2,37c-0.7,20.9,1.1,41.7,4.6,62.3c0.8,4.6,0.8,9.2,2.4,13.6c0,6.8,2.6,13.1,4,19.6c0.5,2.4,0.2,5.3,1.9,7.5
			c1.9,3.5,1.4,7.8,3.8,11.2c0.1,1.2,0.1,2.5,0.2,3.7c-27.2-12.3-53.2-26.9-78.4-42.8c-8.5-5.4-16.7-11.4-25-17.1
			c-1.3-0.9-2.7-1.7-4.7-2.9c1.6,5.8,1.2,10.9,1,16c-0.7-4.7-1.3-9.4-2-14c-0.3-10.6-0.6-21.1-1.3-31.7c-1.1-16.7-2.6-33.8,1.1-50.6
			c0.7-3.2,0.5-6.7,0.2-9.9c-1.6-15,5-26.3,16.1-35.4c10.6-8.8,19.8-19.1,29.9-28.4c4.2-3.9,8.7-7.5,12.1-12.2
			c0.6-0.7,1.1-1.4,1.7-2.1c6.9-0.3,11.8,4.5,17.7,7c8.9,3.7,17.5,8.2,26.7,11.2C362.8,559.7,362.8,561.4,362.1,563.1L362.1,563.1z"
			/>
		<path class="st2" d="M755.9,537.9c0.2-12,3.8-21.3,12-28.3c14.7-12.7,36.4-8.1,45.6,9.8c5.7,11.1,5.7,22.5,0.3,33.7
			c-5.9,12.2-17.8,18.7-30.5,17.3c-12.3-1.4-23-11.3-26.2-24.3C756.4,542.9,755.7,539.8,755.9,537.9z"/>
		<path class="st2" d="M835.6,695.2c3.8,0.3,5.6,2.9,6.2,6.5c0.6,3.8,1.8,7.4,3.5,10.8c1.5,2.8,3.2,3.5,5.9,1.4
			c3.4-2.8,6.4-5.7,8.2-9.8c2-4.5,5.2-6.1,8.6-4.3c3.8,2,4.8,5.3,3.3,9.3c-3.9,10.3-11.5,16.9-21.3,21.2c-3.6,1.6-6.8,0.2-9.5-2.5
			c-6.8-6.9-10-15.6-11.2-25C828.6,698.6,831.7,695.2,835.6,695.2z"/>
		<path class="st2" d="M659.1,787.7c-0.3,2.5-0.6,6.1-0.1,9.8c0.7,5.1,1.7,5.8,6.4,4.3c3.7-1.2,7.1-2.9,9.7-5.9
			c2.6-2.9,5.5-3.7,8.8-1.3c2.9,2.2,3.6,6.8,1.1,9.9c-7.2,9-17,12.5-28.2,12.2c-3.6-0.1-5.7-3-7.1-6.3c-3.5-8.2-4.3-16.7-2.8-25.4
			c0.7-4.1,2.5-7.2,7-6.7C658.4,778.9,659.6,782.4,659.1,787.7z"/>
		<path class="st2" d="M791.6,682.2c-0.4,3.8-2,7.3-4,10.6c-3.6,5.8-8.4,10.3-14.2,13.9c-4.6,2.8-8.2,2.4-12.2-1.2
			c-6.7-6-10.3-13.8-12.1-22.4c-0.9-4.4,1.2-8,4.7-8.6c4.3-0.7,6.4,1.8,7.5,5.6c1,3.9,2.4,7.6,4.7,10.9c1.6,2.3,3.1,2.7,5.3,0.7
			c3.6-3.3,6.6-6.9,8.1-11.8c1-3.2,3.3-5.1,6.8-4.5C789.8,675.9,791.4,678.6,791.6,682.2z"/>
		<path class="st2" d="M794.9,771.9c-0.2-7.4,1.8-10.6,5.7-10.8c3.8-0.2,6.2,2.6,6.7,8.2c0.3,3.7,1.1,7.2,2.5,10.6
			c1.1,2.8,2.6,3.5,5.3,1.9c3.9-2.3,7.4-5.1,9.6-9.2c1.9-3.5,4.8-4.8,8.3-3c3.5,1.9,4.8,5.3,3,9c-4.9,10.6-13.8,16.4-24.7,19.3
			c-3.5,0.9-6.3-1.3-8.5-4.2C797.6,786.7,795.3,778.6,794.9,771.9z"/>
		<path class="st2" d="M708.8,746.4c0.4-3,0.7-5.9,1.1-8.9c0.6-3.8,2.7-6.2,6.7-5.8c4.3,0.4,5.8,3.5,5.6,7.5
			c-0.3,4.1-0.7,8.3-0.1,12.4c0.5,3.6,2,4.9,5.7,3.7c3.8-1.3,7.5-2.9,10.2-6c2.6-2.9,5.6-3.8,8.8-1.3c3.3,2.5,3.4,6,1.5,9.4
			c-4.2,7.4-20.6,14.5-28.9,12.7c-3.2-0.7-5.1-2.8-6.5-5.7C710.2,758.7,709,752.7,708.8,746.4z"/>
		<path class="st2" d="M745.3,842.3c-4.6,0.5-7.7-1.6-9.6-5.6c-4.2-8.7-4.6-17.9-2.9-27.3c0.7-3.8,3-6.1,7-5.5
			c4,0.6,5.5,3.5,5.3,7.2c-0.3,4.3-1.1,8.5-0.2,12.9c0.7,3.3,2,4.6,5.5,3.5c3.9-1.3,7.5-2.8,10.2-5.9c2.7-3.1,5.8-4,9.2-1.3
			c3.1,2.4,3.3,6.9,0.6,10.3C763.8,838.4,755,841.3,745.3,842.3z"/>
		<path class="st6" d="M772.2,548.1c7.4,1.9,11.6,0.7,14.8-3.7c3-4.2,3.2-10.7,0.4-15.1c-3.1-4.8-6.9-6.1-14.8-4.8
			c3.9-6.6,11-9.6,18.2-7.7c8.2,2.1,14,9.9,14.2,19c0.2,9.1-5.2,17.5-12.9,20C784.7,558.4,777.3,555.6,772.2,548.1z"/>
	</g>
</g>
</svg>
