<?xml version="1.0" encoding="utf-8"?>
<!-- Generator: Adobe Illustrator 21.0.0, SVG Export Plug-In . SVG Version: 6.00 Build 0)  -->
<svg version="1.1" id="Layer_1" xmlns="http://www.w3.org/2000/svg" xmlns:xlink="http://www.w3.org/1999/xlink" x="0px" y="0px"
	 viewBox="0 0 4999.8 4000" style="enable-background:new 0 0 4999.8 4000;" xml:space="preserve">
<style type="text/css">
	.st0{fill:#36AE3D;}
	.st1{fill:#FFFFFF;}
	.st2{fill:#9FEDA2;}
	.st3{fill:#C1F3A8;}
	.st4{fill:#36AF3D;}
	.st5{fill:#AAFAB4;}
	.st6{fill:#2BAA32;}
</style>
<g id="Layer_2">
	<path id="Tai_nghe" d="M-7,2121c0.9-6.5,1.8-12.9,0.3-19.5c3.3-15.2-0.9-30.7,2.3-45.9c0.9-3.1,1.4-6,0.4-9.2
		c1.5-22.3,1.4-44.5,5.1-66.5c2.7-12.7,9.1-23.7,15.5-34.7c18.2-32.4,43.1-58.7,70.3-83.6c15.2-13.7,28.5-29.3,43.9-43
		c3.3-2.2,6.5-4.5,9.2-7.3c24.2-25.6,51.7-48,76.3-73.3c12.7-13.1,27.1-24.5,40.3-37.3c15.6-11.1,27.9-26,42.2-38.5
		c13.3-11.6,27.3-22.8,39.3-36c7.6-8.3,14.2-17.4,18.8-27.9c1-2.2,2.2-4.3,3.2-6.7c0.4-1.2,0.9-2.3,1.3-3.6
		c19.1-58.4,40.4-116,61.3-173.7c32.1-82.4,69.5-162.5,109.9-241.1c31.5-68.1,74.9-129,115.6-191.5
		c56.8-79.6,117.5-156.1,178.1-232.9c8.2-10.6,16.4-21.2,27.1-29.6c9.5-5.5,15.5-14.8,24.1-21.4c15.2-11,27.8-25,41.3-37.7
		c42.6-39.5,86-78.3,129-117.4c21.9-19.8,43.6-39.8,66.3-58.6c0.8-0.8,1.5-1.5,2.3-2.2c0.8-0.6,1.5-1.3,2.3-1.9
		c0.4-0.4,0.8-0.6,1-0.9c0.6-0.6,1.4-1.3,2.1-1.9c0.3-0.3,0.6-0.6,1-0.9c0.6-0.6,1.3-1.2,1.9-1.8c0.6-0.5,1.4-1,2.1-1.4
		c0.7-0.4,1.4-0.8,2.2-1.2c0.6-0.4,1.3-0.9,2.1-1.3c0.6-0.5,1.2-1,1.8-1.5c0,0,0.9-0.8,0.9-0.9c0.5-0.6,1.2-1.2,1.7-1.7l0.9-0.9
		c0.5-0.6,1.2-1.2,1.8-1.7c0.6-0.5,1.4-1,2.1-1.4c0.7-0.4,1.4-0.9,2.2-1.3c0.6-0.5,1.3-1,1.9-1.5c0.6-0.6,1.3-1.2,1.9-1.8
		c0.6-0.6,1.3-1.2,1.9-1.7c0.4-0.3,0.8-0.5,1-0.8c0.8-0.5,1.5-0.9,2.3-1.3c0.8-0.5,1.4-0.9,2.2-1.4c0.6-0.5,1.4-1.2,2.1-1.7
		c0.4-0.3,0.8-0.5,1-0.8c0.8-0.5,1.5-0.9,2.2-1.3c0.8-0.4,1.4-0.9,2.2-1.3c1-0.8,1.9-1.5,2.8-2.4c0.9-0.9,1.8-1.8,3.1-2.4
		c0.8-0.5,1.5-0.9,2.3-1.3c1.2-0.6,2.2-1.4,3.3-2.3c1-1,2.1-2.1,3.3-3.2c1.2-1.2,2.4-2.2,4-3.2c67.1-47.2,135.9-91.8,207.1-132.5
		c15.9-8.9,31.5-17.9,47.5-26.4c37.9-20.6,76.5-39,115.4-57.5c42.4-18.9,85-37.6,127.9-55.3c43.1-17.8,87.3-33.7,131.2-49.8
		c23.6-8.7,47.2-17,71.4-23.8c38.4-10,76.5-20,115.2-28.8c47.1-10.7,94.3-20,141.9-28.3c17.1-3.1,34.3-5.4,51.4-8.5
		c34.3-4.3,68.6-9.7,103-12.8c1.5-0.5,3.2-0.8,4.7-0.9c82.3-7,165-7.2,247.5-7.4c57.5-0.1,114.5,4.5,171.7,7.4
		c14.8,4.6,30.3,2.8,45.4,4c24.5,1.8,48.3,6.1,72.4,9.6c22.9,4.5,45.8,9.2,68.9,13.3c56.2,11.4,112.4,23.4,167.4,39.2
		c43.5,12.5,87.2,24.5,130.3,38.6c22.4,7.3,44.1,16.2,66.3,24.3c67.8,25.6,135.5,52.1,201.1,83.3c2.7,1.3,5.6,2.2,8.5,3.3
		c27.3,12.4,54.3,25.4,80.9,39c6.1,3.6,12.7,6.5,18.9,9.8c1,0.5,1.9,1,3.1,1.5c1.4,0.8,2.8,1.5,4.3,2.3c1,0.4,1.9,0.9,2.8,1.4
		c3.8,2.1,7.7,3.8,11.6,5.8c1,0.4,1.9,1,3.1,1.5c2.1,1,4.2,1.9,6.3,3.1c47.9,26,94.1,54.5,139.1,85.2c5.4,4,11,7.6,16.6,11
		c30.2,19.8,59.1,41.6,88.6,62.6c51.8,39.4,102.2,80.5,151.5,122.9c18.8,17.1,37.6,34.3,56.3,51.7c1.4,1,2.7,2.1,4.1,3.3
		c1.3,1.1,2.4,2.3,3.8,3.6c2.8,2.8,5.9,5.6,8.8,8.3c21.4,21.2,42.8,42.2,63.9,63.7c71.3,73.1,136.4,151.4,195.4,234.7
		c33.5,47.4,64.1,96.6,93.6,146.4c19.2,34.9,38.4,69.9,57.5,105c3.1,10.2,9.6,18.4,14.2,27.8c27,53.6,52.7,107.9,77.3,162.5
		c4.9,10.7,11,20.9,13.8,32.4c6,24.5,16.6,47.5,23.2,72c7,16.9,10.6,34.8,17.4,51.8c6.4,16.5,11.6,33.8,15.7,51.1
		c3.3,13.8,9.6,25.1,18.7,35.2c19.8,22,42.5,41.3,64.6,61c9.8,8.7,18.3,18.7,28.8,26.6c14.8,11.5,27.8,25.1,41.2,38.1
		c34.7,33,69.1,66.3,104.4,98.5c1.5,1.7,3.2,3.4,4.9,5.1c0.8,0.8,1.7,1.5,2.4,2.4c0.9,0.8,1.7,1.5,2.4,2.4c0.4,0.4,0.8,0.8,1.3,1.2
		c20.9,21.5,43.9,41,61,65.7c0.6,0.8,1.2,1.8,1.7,2.7c0.8,1.3,1.3,2.6,1.9,4c0.5,0.8,0.9,1.5,1.4,2.3c0.5,0.6,1.2,1.4,1.7,2.2
		s1,1.4,1.4,2.2c0.5,0.8,1,1.5,1.4,2.3c0.6,0.8,1.2,1.5,1.7,2.3c0.9,1.2,1.8,2.4,2.6,3.8c2.6,5,5.1,10.1,8.5,14.7
		c7.2,10.7,9.1,23.3,12,35.3c-0.9,9.8,1.9,19.2,4,28.8c6.7,96.6,3.8,193.4,4.1,290c0.1,50.9-3.7,101.7-7,152.4
		c-0.5,8.2-2.3,16.4-2.7,24.6c-4.9,27.9-7.9,55.9-11.6,83.9c-4.7,35.3-10.4,70.5-17.3,105.5c-9.8,38.4-14.2,77.9-26.2,115.8
		c-9.2,38.1-20.1,75.6-30.6,113.4c-9.8,35.1-21.1,69.9-31.9,104.8c-9.8,32-22.3,63-32.4,94.7c-8.3,26.4-18.2,52.5-30,77.8
		c-5.1,11-6.4,23.7-14,33.7c-17.1,42.8-36.7,84.5-57.2,125.7c-15.1,30.3-31.2,60.2-55.3,84.8c-5.8,5.5-11.8,11-17.9,16
		c-1.2,0.6-2.2,1-3.6,1.4c-3.2,0.8-6.3,1.5-9.3,2.6c-1.3,0.5-2.6,0.8-4.1,1c-60.5,16.6-122,27.9-183.5,39.3c-21,4-42.1,5.8-63.1,10
		c-41.2,6.4-82.8,8.1-124.3,14.8c-34.7,5.6-69.9,7.6-104.8,12.2c-18.7,2.4-37.5,0.8-55.9,3.6c-5.9,0.9-11.1-1-16.5-3.1
		c-1.3-0.5-2.6-1.3-4-1.9c-1.8-1-3.6-2.3-5.2-3.6c-18.3-14.8-21.6-34.6-8.7-55c10.4-16.4,21.5-32.4,31.5-49
		c12.3-20.7,27.6-39.4,40.1-59.9c3.7-4.6,7.4-8.9,9.8-14.2c0.5-1,1.2-1.9,1.7-2.8c1.3-1.8,2.6-3.7,3.8-5.5c0.5-0.9,1.2-1.8,1.8-2.7
		c1.7-2.1,3.2-4.3,4.7-6.7c1.4-2.2,3.1-4.3,4.5-6.5c0.8-1.3,1.7-2.4,2.7-3.7c1.2-1.5,2.2-3.2,3.3-4.9c0.8-1.2,1.5-2.3,2.4-3.6
		c1-1.5,1.9-3.2,2.8-4.9s1.7-3.4,2.7-5.1c0.8-1.3,1.5-2.4,2.4-3.8c1.2-1.8,2.2-3.7,3.3-5.4c3.4-5.2,6.9-10.5,10.2-15.9
		c21.5-34.9,43-69.9,58.6-108c1.2-2.2,2.2-4.6,3.4-6.8c13.6-28.3,27.1-56.6,38.9-85.6c21.6-50.8,43.6-101.3,59.9-154.2
		c9.1-24.7,16.4-50,23.7-75.4c5.5-15.3,7.2-31.6,14-46.6c2.6-12.4,5.8-24.7,8.8-37.1c1.8-4.3,3.6-8.7,4.6-13.1
		c1.9-13.1,4.7-26,8.9-38.5c1.8-3.4,3.6-6.8,3.8-10.7c0-1.3,0.1-2.4,0.5-3.8c1.5-13.1,5.5-25.6,8.3-38.5c0.3-1.2,0.6-2.3,1-3.6
		c1.9-3.3,1.8-7,2.6-10.6c1.2-3.7,1.5-7.4,2.4-11.1c3.8-14.2,6.3-28.9,10.1-43.1c2.2-7.6,3.8-15.3,5.5-22.9
		c7.3-30.5,13.2-61,14.7-92.5c1-21.2,7.3-41.9,8.8-63.2c0.1-2.4,0.8-5.1,0.9-7.7c4.2-85.4,4.1-170.8,2.2-256.2
		c-0.8-37.1-2.2-74.7-11.4-111.4c-3.8-15.2-1-31.1-2.6-46.8c-1.7-17-7.6-33.1-8.8-50c-2.6-35.7-11.9-70.3-18.8-105.1
		c-5.6-28.4-10.4-57.5-21.4-84.7c-10-40.4-21.1-80.5-34-120.2c-9.8-30.2-21.8-59.5-32.2-89.6c-3.4-10.5-8.2-20.5-12.8-30.3
		c-19.6-47.2-41.6-93.4-62.5-140.1c-1-2.3-1.9-4.7-3.2-6.9c-24.3-53.2-52.5-104.4-85.7-152.8c-34.4-54.4-71.7-107-110.2-158.7
		c-2.3-3.2-4.9-6.1-7.4-9.1c-31.9-42.6-65.2-84.1-100.3-124c-4.3-5-7.9-10.4-12.2-15.5c-9.8-13.2-21.8-24.8-32.8-37
		c-37-41-75.8-80.1-116.9-117c-34.7-35.1-73.3-65.5-111.6-96.2c-53.9-43-111.5-80.8-171-115.6c-3.1-1.7-6.1-3.3-9.3-4.9
		c-18.6-10.7-37.6-20.6-56.3-30.9c-2.1-1-4.2-2.2-6.3-3.3c-2.1-1-4.3-1.9-6.4-3.1c-11.9-7.7-24.8-13.7-37.6-20.2
		c-2.1-1-4.2-2.2-6.3-3.3c-5.2-2.7-10.7-5.2-16.1-7.7c-20.8-10.2-41.1-21.6-62.5-30.5c-1.5-0.6-3.1-1.5-4.5-2.6
		c-2.2-1.7-4.9-2.4-7.4-3.4c-1-0.4-2.1-0.8-3.2-1.3c-8.9-4.3-17.5-9.2-27.3-12c-23.7-9.8-47.5-19.5-70.9-30
		c-2.7-1.4-5.6-2.4-8.5-3.4c-1.2-0.4-2.3-0.9-3.6-1.4c-21.5-8.8-42.8-17.8-65-24.5c-106.7-39.7-216.8-65.8-328.8-84.7
		c-36.4-6.1-72.9-11.4-109.7-14.8c-33.1-4-66.4-6.5-99.4-9.7c-23-2.1-45.9-1-68.9-3.1c-5.9-2.1-12-1.8-18-1.8
		c-52.6,0-105.3-1.2-157.9,0.4c-45.6,1.3-90.9,6-136,11.9c-70.8,9.3-140.3,24.5-209.5,41c-44.3,12.3-88.7,23.8-131.9,39.3
		c-24.2,7-47.7,16.4-71.4,25c-1.2,0.5-2.3,1-3.6,1.4c-5.2,1.7-10.7,3.2-15.7,5.5c-12.8,5.2-25.7,10.2-38.6,15.6
		c-31.6,12.7-63,26.2-93.6,41.3c-54.9,26.7-109.3,54.1-162.3,84.6c-1.9,1-4,1.8-5.9,2.7c-0.9,0.4-1.7,0.8-2.6,1.2
		c-1.2,0.5-2.4,1-3.8,1.7c-0.8,0.4-1.4,0.8-2.2,1.2c-0.6,0.4-1.4,0.8-2.2,1.2c-0.6,0.4-1.4,0.9-2.1,1.3c-0.6,0.5-1.3,1-1.9,1.5
		s-1.4,0.9-2.1,1.3c-1.2,0.5-2.3,1.2-3.4,1.8c-0.8,0.5-1.5,0.9-2.3,1.3c-1.3,0.8-2.4,1.5-3.8,2.3c-0.9,0.6-1.8,1.3-2.7,1.8
		c-32,19.7-64.8,37.9-96.6,57.8c-3.2,1.3-6.4,2.6-9.2,4.9c-0.9,0.8-1.9,1.4-2.8,1.9c-35.1,20.6-68.2,44-100.6,68.5
		c-0.9,0.8-1.8,1.5-2.8,2.3c-0.9,0.8-1.9,1.4-3.1,2.1c-20.2,14.8-39.4,30.5-58.9,46.1c-22.4,17.3-43.1,36.4-64.4,55
		c-35.7,31.1-69.1,64.9-101.7,99.3c-46.1,48.5-88.7,100.1-128.6,154c-28.7,39.7-57.6,79.1-83.8,120.6
		c-38.6,58.4-73.7,118.9-107,180.5c-21.6,42.4-43.6,84.7-62.7,128.2c-13.2,28-24.1,56.8-33.3,86.4c-12,35.7-24.8,71.3-36.7,107.2
		c-0.6,1.8-1.4,3.6-2.2,5.2c-0.4,1.2-0.9,2.3-1.3,3.4c-3.7,14.1-9.3,27.6-14.1,41.5c-0.3,1-0.8,2.2-1.2,3.3
		c-1.2,2.4-1.9,5.1-2.3,7.8c-0.1,1-0.5,2.1-0.8,3.2c-0.6,1.9-1.4,4-2.1,5.9c-0.3,0.9-0.6,1.8-1,2.7c-0.8,1.8-1.3,3.7-1.8,5.5
		c-0.3,0.9-0.6,1.8-1,2.7c-0.6,1.3-1.2,2.6-1.8,4.1c-0.4,1-0.6,1.9-1,2.8c-0.9,2.6-1.3,5.4-2.1,8.1c-1.9,15.1-8.8,28.7-12.3,43.4
		c-10,39.2-18.4,78.6-25.5,118.2c-5.1,28.2-10.2,56.3-13.3,84.7c-3.4,30.2-7.9,60.3-9.5,90.9c-0.1,3.2-0.3,6.4-1,9.5
		c-3.1,14.6-3.2,29.6-3.3,44.1c-0.4,34-5.8,68-3.1,101.9c3.7,46.2,0.3,92.4,2.7,138.5c2.1,39,3.8,78.3,11.9,116.6
		c1.2,5.5,0.1,11.4,1.8,16.9c1.5,5.1,1.2,10.5,3.1,15.5c2.2,21.2,8.8,41.6,13.1,62.5c3.8,17.8,8.5,35.2,13.2,52.7
		c6,25.2,12.3,50.4,18.2,75.6c10.7,47,24.3,93.2,37,139.8c4.3,13.3,8.1,26.9,12.3,40.2c0.5,1.3,0.8,2.4,1.2,3.8
		c10.1,35.1,23.2,69.1,35.8,103.4c22.7,58.6,50,115.3,76.2,172.4c10.9,30,26.5,57.5,43.6,84.1c27.8,45.3,57.3,89.4,86.5,133.7
		c6.8,11.8,16.2,21.9,22.8,33.8c11.6,17.4,23.3,34.6,35.1,51.8c9.1,13.2,9.7,27.8,3.4,41c-6.4,13.8-18.9,22.4-34.9,24.1
		c-15,1.5-29.4-1.5-44.1-3.1c-35.8-3.4-71.4-9.5-107.6-10.4c-16.5-0.4-32.1-7.6-48.6-8.5c-40.3-2.2-80-10.2-120-14.8
		c-21.2-2.4-41.6-8.8-62.8-11.1c-54-10.9-108.3-20.8-161.3-36.1c-7.6-1.5-13.3-6.1-18.7-11.5c-9.2-10.4-20.7-18.6-27.5-31
		c-27-39.3-46.5-82.4-65.7-125.8c-39-84.3-70.3-171.5-99.4-259.4c-16.4-43-27.3-87.8-40.2-131.9c-9.1-30.9-15.9-62.3-25.6-92.9
		c-12-39.5-17.7-80.4-26.6-120.6c-5.1-22.9-8.8-45.9-12.5-69.1c-5.9-37.6-11-75.4-15.5-113.1c-3.2-26.7-3.3-53.5-4-80.4
		c-0.3-10.4,1.2-20.8-0.9-31.1c0.5-3.3,0.4-6.4-0.6-9.7c-3.2-15.2,0.9-30.7-2.2-45.9c1.4-6.5,0.5-12.9-0.4-19.5
		c-2.1-4.6-1-9.5-1-14.1c-0.1-51.7-0.1-103.3,0-155C-8,2130.4-9.2,2125.5-7,2121z"/>
	<path id="Vong_tron" class="st0" d="M1537.7,3704.5c-9.7-6.8-19.3-13.7-29.1-20.6c-9.6-7-18.9-14.3-28.9-20.8
		c-46.8-32.9-91-69-133.6-106.9c-120.2-106.2-224-226.8-311.4-361.4c-20.5-31.4-40.1-63.4-58.1-96.2c-1.3-2.2-2.7-4.5-4.2-6.5
		c-30.3-54-57.6-109.8-81.7-167c-21.1-49.9-39.9-100.6-56.4-152.3c-12.9-40.6-24.5-81.4-34.6-122.6c-11.3-45.9-20-92.5-27.6-139.2
		c-6.9-42.9-12.2-86.1-15.3-129.4c-4.9-67.7-7.8-135.5-4.9-203.5c2.2-48.1,5.4-96.4,10.9-144.2c5.6-49.3,13.6-98,23.2-146.6
		c13.8-70.3,32.2-139.4,54.8-207.2c20.3-60.9,43.5-120.8,71.2-178.8c15.2-31.9,30.6-63.5,47.2-94.6
		c64.8-120.2,142.2-231.7,232.4-334.2c100-113.5,212.8-212.6,338.1-297.2c91.9-62.2,189-115.1,291.1-158.6
		c52.1-22.1,105.1-41.7,159.1-59c64.4-20.6,129.8-37.3,196.1-50.2c74.1-14.2,148.8-23.9,224.2-28.5c48.4-2.8,96.7-4.6,145.1-3.7
		c47.5,0.9,94.8,4,142.3,8.7c33,3.3,65.8,7.3,98.5,12.3c33.1,5,66.1,11.3,98.9,18.4c37.5,8.1,74.6,17.4,111.5,27.9
		c49.9,14.1,98.9,30.5,147.4,49.1c68.9,26.4,135.6,57.1,200.7,91.9c107.6,57.6,208,125.9,301.4,204.4
		c60.6,50.8,117.1,105.7,170.7,163.8c12,13.1,23.4,27,35.1,40.6c8.5,10.6,17.3,21.2,26.4,31.4c36.7,43.8,70.3,90.1,102.1,137.6
		c56.7,84.6,105.3,173.7,146.3,266.7c30,68.2,55.4,138.2,76.5,209.8c15.6,52.7,28.7,106,39.3,159.8c10.5,53,18.2,106.6,23.4,160.4
		c6.7,67.8,10.2,135.6,9.2,203.8c-0.8,50.7-4,101.1-8.8,151.4c-4.3,43.9-10.2,87.4-17.8,130.9c-6.7,38.6-15.1,76.9-24.3,115.1
		c-11.8,48.3-25.6,96-41.6,142.9c-30.2,89.3-67.3,175.7-111.5,258.9c-57.1,107.5-124.4,208-202.1,301.4
		c-53.6,64.5-111.6,124.9-173.7,181.1c-36.1,32.9-73.5,64.4-112.9,93.4c-6.9,5.4-14.2,10.2-21,15.9c-44.4,33.9-90.9,64.6-138.6,93.4
		c-63.4,38.4-129,72.6-196.8,102.4c-57.7,25.5-116.7,47.7-176.9,67.1c-47.7,15.3-96,28.5-144.8,39.7
		c-56.6,12.8-113.6,22.4-171.1,29.8c-94.5,12.3-189.3,15.1-284.4,12.8c-4.3-0.1-8.8,0-13.1,0c-26-2.7-52-2.1-77.9-5.1
		c-34.4-4.1-69-7.6-103.4-12.5c-50.3-7.2-100.1-16.9-149.5-28.4c-51.1-11.9-101.6-26.4-151.3-43.1
		c-84.5-28.5-166.5-62.8-245.7-103.7C1649.4,3774.5,1592.5,3741.4,1537.7,3704.5z"/>
	<path id="Body_1_" class="st1" d="M3360.7,2567c-2.4,36.5-5,72.9-9.5,109.3c-3.2,25.1-7.2,50-11.1,75
		c-13.2,84.3-35.2,166.4-67.8,245.2c-41.2,99.4-98.3,188.4-177.5,262.2c-14,13.1-28.3,26-43.9,37.1c-0.9,0.8-1.9,1.4-3.1,2.2
		c-0.5,0.4-0.9,0.6-1.4,1c-0.9,0.8-1.8,1.4-2.7,2.1c-0.9,0.6-1.8,1.3-2.8,1.9c-3.1,1.7-5.5,4-8.1,6.1c-22.9,16.1-46.3,31.1-70.5,45
		c-3.6,1.8-7.2,3.3-10.7,5.2c-0.9,0.5-1.9,1-3.1,1.5c-2.4,1.2-5,2.3-7.4,3.7c-0.9,0.5-1.9,1-3.1,1.5c-2.4,1.2-5,2.3-7.4,3.7
		c-0.9,0.5-1.9,1-3.1,1.5c-2.4,1.2-5,2.2-7.4,3.7c-0.9,0.5-1.9,1-2.8,1.5c-2.3,1-4.9,2.1-7.2,3.4c-0.9,0.5-1.8,0.9-2.7,1.2
		c-1.8,0.6-3.8,1-5.6,1.7c-0.9,0.4-1.8,0.8-2.6,1.2c-1.3,0.6-2.6,1.3-4,1.9c-0.9,0.5-1.8,1-2.7,1.4c-1.8,0.9-3.7,1.8-5.5,2.7
		c-0.9,0.5-1.8,0.9-2.7,1.3c-1.3,0.6-2.7,1.2-4.1,1.8c-0.9,0.5-1.8,0.8-2.7,1.2c-1.9,0.6-3.8,1.2-5.6,2.1c-0.9,0.5-1.8,0.9-2.8,1.4
		c-3.1,1.3-6,2.3-9.1,3.6c-1,0.4-2.1,0.8-3.2,1c-3.7,0.9-7.2,2.3-10.6,4.2c-1,0.5-2.1,0.9-3.2,1.3c-4.2,1.3-8.5,2.6-12.7,4.2
		c-1.9,0.8-4.1,1.7-6,2.4c-2.4,0.9-5.1,1.7-7.6,2.7c-1,0.5-1.9,0.8-3.1,1.2c-4.7,1.5-9.6,2.6-14.2,4.1c-1,0.4-2.1,0.8-3.2,1
		c-4.3,1.2-8.7,2.4-12.7,4.2c-1,0.5-2.1,0.8-3.3,1.2c-5,1.5-10.1,2.7-15.2,4.2c-1,0.4-2.2,0.6-3.4,1c-5.9,0.9-11.4,2.8-16.9,4.9
		c-1.2,0.4-2.3,0.6-3.7,0.9c-7,0.8-13.8,2.8-20.8,5c-1.4,0.4-2.7,0.6-4.2,0.8c-39.4,8.9-79.7,12.8-119.7,17
		c-32.2,3.4-65,2.6-97.5,0.9c-12.9-0.6-26,0.8-38.8-2.4c-1.4-0.1-3.1-0.5-4.5-0.9c-42.9-4.1-85.4-10.9-127.3-20.3
		c-56.3-14-111.2-32.5-163.6-57.5c-68.3-32.6-132.3-71.4-188.1-123.5c-35.5-33.1-68.1-68.5-94.2-109.6c-14.8-23.3-27-47.7-36.5-73.6
		c-0.9-2.7-12.4-19.5-16-69.8c-3.6-50.3,6.8-68.9,8.8-76.7c1.8-7.9,20.2-61,31.1-77.4c32.6-49.4,76.5-86.5,127.1-116.3
		c74.4-43.9,137.8-100.3,195.2-164.4c67.6-75.4,124.1-158.4,173.5-246.4c16.5-29.2,32.2-58.9,45.7-89.7
		c30.3-70,49.4-143.2,60.3-218.6c2.3-16,21.9-357.6,21.6-359c-0.3-18.6-5.1-58.4-5.2-59.8c-2.6-23.8-4.1-47.7-10-71
		c-3.3-17.3-5.6-34.7-10.2-51.6c-3.1-14.1-5.2-28.4-9.5-42.1c-0.4-1.2-14.8-53.1-16.5-58.2c-0.5-1.3-6.4-18.8-6.4-18.8
		s11.6-1,15.6-0.9c6.9,0.4,14,0.1,21,0.1c453,0,906,0,1358.9,0c8.8,0,17.4-0.3,26.2,0.3c1.5,0.1,4.7,0.5,4.7,0.5l24.1,1.4l-1.3,24.1
		c0,0-0.5,5.6-1.3,8.3c-8.7,27.4-26.6,45.9-53.1,56.4c-7.4,3.2-15.5,2.6-23.2,2.6c-83.2,0-166.5,0-249.7,0c-8.8,0-17.4,0.1-25.2,5
		c-33.1,17.3-40.7,60-15.6,89c7.7,8.9,16.9,16.4,24.1,25.6c20.6,26.7,20.6,56.2-0.8,82.2c-11.1,13.6-23.9,25.2-41.2,30.9
		c-7.4,3.2-15.3,2.8-23,2.8c-60.8,0-121.5,0-182.2,0c-6.5,0-12.9-0.4-19.5,0.6c-1.3,0.4-2.4,0.9-3.7,1.4c-1,0.6-2.1,1.3-3.1,1.9
		c-0.4,0.4-0.9,0.6-1.4,0.9c-0.8,0.6-1.7,1.3-2.4,2.1c-0.4,0.4-0.8,0.6-1.2,1c-0.6,0.8-1.4,1.4-2.2,2.1c-0.3,0.4-0.6,0.8-1,1
		c-0.6,0.8-1.2,1.5-1.8,2.3c-1,1.8-1.5,3.7-2.1,5.8c-0.3,1-0.5,2.1-0.8,3.2c-1,6.9-1.3,13.8,0.9,20.7c0.4,1.2,0.6,2.4,0.9,3.7
		c1.3,6.7,3.1,13.1,5.4,19.5c12.3,41.9,21.5,84.5,31.4,126.8c14.3,61.6,25.7,123.6,35.5,186c9.5,60.6,17.3,121.6,23,182.7
		c3.8,41.2,5.9,82.4,9.5,123.6C3362,2379.3,3361.3,2557.7,3360.7,2567z"/>
	<path id="Mouth_Grren" class="st2" d="M1273.8,2292.4l-4.2,0.6c0,0,11-10.4,12.2-11.3c1.7-1.3,4-2.7,6-4c26.9-14,52-31,78.7-45.3
		c0.9-0.4,14.7-7.7,20.2-9.7c11-4.5,25.2-11.3,30.5-12.9c76.3-31.2,250-72.4,378.3-98.7c90.2-18.4,181.1-32.5,272.5-42.6
		c34.6-4,69.2-8.7,104.1-8.8c55.8,0.3,111.2-6.9,167-5.9c13.1,0.3,25.1,0.3,38.4,0c2.3,0,7.9-0.3,7.9-0.3l16.5,0.8
		c0,0-1.7,6-2.7,14.1c-5.2,43.5-23.9,82.6-38.4,123c-2.7,7.8-8.5,13.1-16.4,15.9c-49.3,17.7-98.8,33.3-150.1,43.9
		c-40.1,8.3-80.2,15-120.6,20.9c-28.4,4.2-56.7,7.8-85.2,10.6c-43.6,4.2-87.4,6.3-130.9,10.9c-37.6,4.1-74.7,0.9-111.9,4.1
		c-39.2,3.3-78.2,6-117.2,5c-30.3-0.8-60.8-0.4-91-2.4c-45.4-0.9-130.8-1.5-135-2.1c-4.3-0.5-71.8-5.9-89.8-5.9
		c-8.2,0-16.1-0.5-24.3-0.5C1283.4,2291.5,1273.8,2292.4,1273.8,2292.4z"/>
	<path id="Greenn" class="st3" d="M2443.4,1362.2c0,0-2.2,0-2.7-0.4c-4.7-2.3-7.2-14.1-7.2-14.1c-1.7-4.3-7.3-21.1-7.3-21.1
		s-1.9-4.7-3.4-9.6c-1.2-4-12.4-32.4-12.8-33.9c-0.4-1.5-1.4-7.9-1.4-7.9h8.9c0,0,30.5,0.5,45.8,0.5c450.5,0,901.1,0,1351.5,0
		c6.9,0,14,0,21,0c5.1,0.3,11.6,1.5,16.4,3.6c7.8,3.2,17.8,14,22.1,18.8c5.6,6.5,9.8,16.8,9.8,16.8s4.2,8.3,4.6,16.4
		c0.1,0.6,0.1,1.2,0.1,1.8c0.3,9.1,0.4,20.5-0.3,29.8c0,0-7.2-0.4-23.2-0.8C3392.2,1362,2443.4,1362.2,2443.4,1362.2z"/>
	<path id="Long_xanh" class="st4" d="M2630.5,1553.7c2.6-13.2,27-84.1,81.1-101c38.1-19.1,87.7-16,128.5-7.4
		c31,13.4,71.2,38.6,84.2,73.7c13.1,35.1,12.9,59.9,12.9,59.9s0.4,38.1-1,57.2c-4.9,65.8-46.8,130.4-111.6,147.8
		c-83.6,22.5-158.7-19.8-186.7-97c-12.2-33.4-11-60.3-11.4-102.6C2626.3,1575.2,2628,1566.9,2630.5,1553.7z"/>
	<path id="gREEN_lgiht" class="st5" d="M1841,1387.8c21.2-11.1,43.9-18.9,66.1-27.4c41.9-15.7,84.7-29.1,128-40.3
		c37-9.6,74.4-17.5,112-24.5c30-5.5,60-9.8,90.2-13.3c30.5-3.6,61.2-7.7,92.1-7c2.2,0,4.5,0.1,6.7,0.3c2.2,0.1,4.9,0.5,5.8,2.2
		c0.9,1.7,5.9,16,5.9,16s5.5,13.3,9.5,22c10.6,30.9,14.8,39.3,24.2,67.7c1.9,5.9,0.4,0.4,4.6,11.3c-6.8,1.4-16.9-0.4-32.8,1.8
		c-23.4,1.8-48.5,4.2-71.7,6.8c-22,2.4-44,6-65.8,9.7c-0.6,0.1-28.8,5.5-32.4,6.1c-68.9,13.4-136.9,30.6-203.8,52.2
		c-75.9,24.5-149.9,54.1-221.8,89c-59.3,28.7-116.5,61.3-172.4,96.2c-60.5,37.7-116.5,81.4-170.3,127.9
		c-51.4,44.4-100.3,91.5-145.4,142.9c-47.1,53.9-91.9,109.4-134.3,167c-4.6,6.3-6.1,11.5-11.3,21c-5.2,7.3-4.7,7.9-10,16.4
		c-0.5-0.5-19.2,31.9-19.2,31.9l-33.9,40.1c0,0,26.7-65.2,45.4-103.2c28.5-57.5,62.5-114.7,76.3-138.5
		c24.3-42.1,51.1-77.6,59.4-89.3c15.3-21.4,32.2-43.8,48.5-64.3c41.6-56,91.9-107.5,144.8-156.3c16.5-13.3,32.9-29.4,48.8-43.4
		c6.7-5.8,85.5-68.2,119.9-91.6c6.8-4.7,33.8-23.2,67.1-42.9c38.1-22.5,84.1-47,107.5-58.5C1797,1406.3,1830.3,1391.3,1841,1387.8z"
		/>
	<path id="Mouth_1_" class="st1" d="M2428.5,1863.5c-0.1,0.5-3.4,14.6-7.2,16.6c-3.3,1.7-11.3,0.9-20.6,0.4
		c-22.5-1.3-45.2-1.7-67.6-2.2c-22.4-0.5-45,1.2-67.6,2.2c-18.6,0.9-63,5.1-63.5,5.8c-16.6,4.1-33.9,3.2-50.7,6.5
		c-14,1.3-28,2.7-41.7,5.2c-31.4,3.8-62.7,8.8-93.6,15.6c-38.5,7.7-76.8,16.1-114.8,26c-18.4,3.6-36.2,9.3-54,15.1
		c-1.2,0.4-2.4,0.8-3.7,1c-5.5,0.8-10.7,2.3-15.9,4.5c-1.2,0.5-2.2,0.8-3.4,1.2c-9.8,2.6-19.6,5.1-29.1,8.8c-1,0.5-2.2,0.8-3.4,1.2
		c-9.7,2.4-19.1,5.4-28.3,9.3c-1,0.5-2.2,0.8-3.3,1.2c-9.6,2.6-18.7,6-28.2,9.3c-1,0.4-2.2,0.8-3.3,1.2c-8.3,2.1-16.2,5.8-24.2,8.7
		c-1,0.4-2.1,0.8-3.2,1.2c-1.9,0.8-4.1,1.5-6,2.3c-2.1,0.8-4.1,1.5-6.1,2.3c-1,0.5-2.1,0.8-3.2,1.2c-4.3,1.3-8.8,2.6-12.9,4.3
		c-3.2,1.3-6.1,2.7-9.2,4.3c-1,0.5-2.1,0.9-3.2,1.3c-3.3,1-6.5,2.1-9.6,3.7c-0.5,0.3-1,0.4-1.4,0.6c-0.9,0.4-1.9,0.8-3.1,1
		c-1.4,0.4-3.1,0.9-4.5,1.4c-0.9,0.4-1.9,0.8-2.8,1c-2.6,0.8-5,1.7-7.4,2.8c-6.1,2.8-12.7,4.9-18.7,8.1c-0.9,0.5-1.9,1-3.1,1.4
		c-1.4,0.6-2.8,1.3-4.3,1.9c-0.9,0.5-1.8,0.8-2.8,1.2c-1.4,0.5-2.8,0.9-4.3,1.4c-0.9,0.4-1.8,0.8-2.7,1.2c-1.8,0.8-3.7,1.5-5.5,2.3
		c-1.8,0.6-3.7,1.3-5.5,2.1c-0.9,0.5-1.9,0.9-2.8,1.3c-2.1,0.9-4.1,1.8-6,2.7c-0.9,0.5-1.8,0.9-2.7,1.3c-1.3,0.6-2.6,1.2-4,1.8
		c-0.8,0.5-1.7,0.9-2.4,1.3c-1.7,0.8-3.4,1.7-5.2,2.4c-0.9,0.4-1.8,0.8-2.7,1c-3.1,0.9-5.8,2.2-8.3,3.8c-0.9,0.6-1.9,1-3.1,1.5
		c-10.1,3.6-19.6,8.3-29.2,13.3c-0.9,0.5-1.9,1-3.1,1.5c-2.4,1.2-5,2.1-7.3,3.4c-0.9,0.5-1.8,0.9-2.7,1.3c-1.8,0.8-3.7,1.5-5.5,2.4
		c-1.3,0.8-2.7,1.4-4.1,2.2c-0.9,0.5-1.8,1-2.7,1.5c-1.9,0.9-3.8,1.8-5.8,2.7c-0.9,0.5-1.8,0.9-2.7,1.3c-1.3,0.6-2.6,1.2-4,1.8
		c-0.8,0.5-1.7,0.9-2.6,1.3c-1.3,0.6-2.6,1.3-3.8,1.9c-0.9,0.5-1.7,1-2.6,1.4c-2.3,1.2-4.7,2.3-6.9,3.6c-1,0.5-15.7,7.6-16.6,8.2
		c-1.4,0.8-2.8,1.4-4.3,2.2c-0.9,0.5-1.8,1-2.8,1.4c-2.3,1.2-4.9,2.2-7,3.7c-0.9,0.5-1.9,1-2.8,1.5c-2.4,1.2-5,2.3-7.3,3.7
		c-0.9,0.5-1.9,1-3.1,1.5c-3.7,1.5-7.2,3.6-10.7,5.5c-33.4,18.6-66.5,37.5-99.6,56.4c-3.3,1.5-6.3,3.7-9.3,5.8
		c-59.8,36-118.5,73.7-175.5,113.9c-43.5,30.6-141.3,100.2-141.3,100.2c-0.6,0-0.1-4.2,0-5.9c0.8-6.5,2.8-11.6,4.6-16.9
		c14.7-45.3,26.1-91.6,45.9-135c2.2-4.7,7.9-17.4,7.9-17.4l18.7-32.6l25.4-41.6l11.1-16.8c0,0,74.9-103,130.4-168.8
		c36-42.6,73.1-84.5,113.3-123.1c95.6-92,199.4-173,315.6-237.8c105.9-59,216.1-107.9,331.7-144.5c66.5-21.1,134.1-38,202.9-51.1
		c2.8-0.9,51.4-8.8,58.9-10.1c6-0.3,11.8-1.9,17.7-2.7c5.8-0.8,20.1-2.3,21.5-2.4c6.8-0.4,12.7-1.8,19.5-2.7
		c6.3-0.8,13.4-1,19.6-1.9c2.7-0.6,5.5-1,8.3-1.2c2.1-0.1,16.6-0.9,22-1.7c7.2-0.9,22-1.5,22-1.5h4.6l1.9,5.8
		c0,0,29.2,110.6,37,167.5c1.7,12.4,5,24.7,5.2,37.3c-0.5,16.4,4.7,51.4,4.9,53c2.8,49.1,3.2,98.3,0,147.4c-0.1,1.5-0.4,3.1-0.8,4.5
		c-1.9,14.3-4.3,28.8-4.2,43.5C2429.9,1857,2428.6,1863,2428.5,1863.5z"/>
	<path id="Mieng_tren" class="st1" d="M2257.6,1935.5c0,0,101.7-0.3,152.7-0.3c9.3,0,8.7,0.4,8.8,9.7c0,23.4-4.1,46.5-6.9,69.6
		c-1,8.7-4.9,25-4.9,25l-5.4,15.5c0,0-4.7,0.1-7.3,0c-43-1.7-91.1,0.9-134.1,2.6c-29.7,1.2-59.5,3.7-89.4,5.9
		c-25.6,1-51.2,2.7-76.5,6.8c-12.8,2.1-26.1,1.2-39,3.4c-16.2,2.8-32.6,5-49.1,6.5c-28.9,2.8-57.5,8.8-86.4,12.2
		c-12,1.4-24.1,3.7-36,5.9c-51.2,9.7-102.5,19.3-153.3,30.7c-72.6,16.2-144.5,34.7-215.5,56.6c-37.9,11.6-75.6,23-113.1,36
		c-3.2,1-51.2,20-51.2,20l15.7-14.6l14.6-11.4c0,0,65.7-37.1,99.2-54.8c29.7-15.5,59.9-29.8,90.3-44.1c64.1-30.3,130-56.8,197-80.4
		c30-10.5,60.3-19.8,90.7-29.1c28.4-8.5,56.8-16.8,85.5-23.7c26.2-6.3,52.2-12.8,79-17.3c21.8-3.6,43.4-8.9,65-12.4
		c21-3.4,42-5.8,63-8.5C2164.3,1943.8,2257.6,1935.5,2257.6,1935.5z"/>
	<path id="Mat" class="st1" d="M2710.9,1694.6c-3.8-5.1-3.1-4.1-3.8-5.1c-2.7-4.2-5.1-8.7-6.4-14.2c10.2,2.1,7.6,1.7,12.7,2.8
		c14.6,2.3,15.9,4,28.7,3.8c16.5-4.3,31-14.2,41.1-28.9c1.3-1.8,2.7-3.7,3.7-5.8c1.2-2.4,1.9-5.2,2.6-7.9c0.3-1.2,0.5-2.2,0.8-3.4
		c1-11.3,0.6-22.7,0.1-33.9c-0.3-1-0.4-2.1-0.8-3.2c-0.5-1.4-1-3.1-1.5-4.5c-0.4-0.9-0.8-1.8-1-2.7c-0.4-1.3-0.8-2.7-1.3-4.1
		c-0.4-0.8-0.8-1.7-1.3-2.4c-0.5-0.8-1-1.4-1.5-2.2c-0.5-0.8-1-1.5-1.5-2.3c-1-1.7-2.4-3.3-4-4.7c-6.7-8.8-14.3-15-25-20.2
		c-10.6-5.2-34.6-4-50.3,8.1c1.2-6.4,0.8-8.5,4-15.5c3.2-6.9,8.3-10.7,14.1-15.5c49.8-40.3,117.4-26.2,147,30.7
		c13.4,26,18.6,53.2,10.7,82c-1.2,4.1-5.5,17.5-12.2,30.1c-27.3,47.9-92.5,77.6-149,25.6C2714,1698.6,2716.2,1700.4,2710.9,1694.6z"
		/>
	<path id="Vong_1" class="st6" d="M2597.9,2409.5c-1-4.5-3.4-10.6-5.5-18c-1.7-5.9-2.4-13.7-3.2-19.7c-1.4-12.5-2.1-19.1,1.3-26.5
		c3.4-7.3,7-10,16.1-16.2c8.2-5.8,16.4-4.9,23.3-2.3c6.7,2.3,14.8,7.6,18.7,15.6c5.1,10.2,6.1,22.8,6.5,23.2
		c5,16.6,7.7,33.9,16.6,49.3c11.3,19.5,15.1,20.6,32.8,7.2c18.7-14.1,34.2-30.9,42.9-53c4.7-11.9,12.2-21.2,26.1-22.9
		c23.7-3.1,42.9,19.2,37,42.9c-4.9,19.2-14.2,36.5-26.2,52.1c-22,29.1-50.8,49.9-83.1,65.9c-17.7,8.8-34.9,6.1-48.6-6.4
		C2625.3,2475.4,2601.8,2425.1,2597.9,2409.5z"/>
	<path id="vong_2" class="st6" d="M3013,2533.9c-1-4.5-3.4-10.6-5.5-18c-1.7-5.9-2.4-13.7-3.2-19.7c-1.4-12.5-2.1-19.1,1.3-26.5
		c3.4-7.3,7-10,16.1-16.2c8.2-5.8,16.4-4.9,23.3-2.3c6.7,2.3,14.8,7.6,18.7,15.6c5.1,10.2,6.1,22.8,6.5,23.2
		c5,16.6,7.7,33.9,16.6,49.3c11.3,19.5,15.1,20.6,32.8,7.2c18.7-14.1,34.2-30.9,42.9-53c4.7-11.9,12.2-21.2,26.1-22.9
		c23.7-3.1,42.9,19.2,37,42.9c-4.9,19.2-14.2,36.5-26.2,52.1c-22,29.1-50.8,49.9-83.1,65.9c-17.7,8.8-34.9,6.1-48.6-6.4
		C3040.3,2599.9,3016.8,2549.5,3013,2533.9z"/>
	<path id="Vong_3" class="st6" d="M2374.7,2716c0.3-4.6,0-11.3,0.3-18.8c0.3-6.1,1.8-13.8,3.1-19.7c2.4-12.4,3.8-18.8,9.2-24.7
		s9.7-7.3,20.3-10.6c9.6-3.1,17,0.4,22.9,4.7c5.6,4.2,11.8,11.8,13.1,20.5c1.8,11.3-1,23.6-0.8,23.9c-0.4,17.4-2.8,34.7,0.9,52
		c4.9,22,8.1,24.1,28.9,16.8c22.1-7.7,41.9-19.1,57.1-37.6c8.1-10,18-16.5,31.6-13.8c23.4,4.3,35.1,31.2,22.3,52.1
		c-10.5,16.9-24.6,30.3-40.7,41.7c-29.8,21-63.5,32.2-99.2,37.7c-19.3,3.1-35.1-4.7-44.5-21
		C2380.7,2787.2,2373.6,2732.1,2374.7,2716z"/>
	<path id="Vong_4" class="st6" d="M2829.7,2882c-0.8-4.6-2.7-10.9-4.3-18.3c-1.3-6-1.5-13.8-1.8-19.8c-0.5-12.5-0.8-19.2,3.1-26.4
		c3.8-7,7.7-9.5,17.1-15.2c8.5-5.1,16.6-3.7,23.4-0.9c6.4,2.7,14.2,8.7,17.7,16.8c4.5,10.5,4.7,23.2,5,23.6
		c3.8,16.9,5.6,34.4,13.3,50.2c10,20.2,13.6,21.5,32.2,9.3c19.6-12.8,36-28.7,46.3-50.2c5.5-11.6,13.6-20.3,27.5-21.2
		c23.8-1.4,41.6,22,34.2,45.2c-6,18.9-16.6,35.5-29.4,50.4c-23.8,27.5-53.8,46.5-87.2,60.5c-18.2,7.6-35.2,4-48.1-9.6
		C2852.7,2949.5,2832.4,2897.8,2829.7,2882z"/>
	<path id="Vong_5" class="st6" d="M2495.6,3093.9c0.3-4.6,0-11.3,0.3-18.8c0.3-6.1,1.8-13.8,3.1-19.7c2.4-12.4,3.8-18.8,9.2-24.7
		c5.4-5.9,9.7-7.3,20.3-10.6c9.6-3.1,17,0.4,22.9,4.7c5.6,4.2,11.8,11.8,13.1,20.5c1.8,11.3-1,23.6-0.8,23.9
		c-0.4,17.4-2.8,34.7,0.9,52c4.9,22,8.1,24.1,28.9,16.8c22.1-7.7,41.9-19.1,57.1-37.6c8.1-10,18-16.5,31.7-13.8
		c23.4,4.3,35.1,31.2,22.3,52.1c-10.5,16.9-24.6,30.3-40.7,41.7c-29.8,21-63.5,32.2-99.2,37.7c-19.3,3.1-35.1-4.7-44.5-21
		C2501.8,3165.1,2494.5,3109.9,2495.6,3093.9z"/>
	<path id="Vong_6" class="st6" d="M2044.3,2958.3c0.5-4.6,0.5-11.3,1-18.8c0.5-6.1,2.4-13.7,4-19.6c3.1-12.3,4.7-18.7,10.4-24.3
		c5.6-5.6,10.1-6.9,20.7-9.7c9.7-2.4,17,1.2,22.7,5.8c5.5,4.5,11.3,12.3,12.2,21.1c1.3,11.3-2.1,23.4-1.8,23.9
		c-1.2,17.3-4.5,34.6-1.4,52c3.8,22.3,6.9,24.5,28.2,18c22.4-6.8,42.6-17.1,58.6-34.9c8.7-9.6,18.7-15.6,32.4-12.4
		c23.2,5.4,33.7,32.9,19.8,53c-11.3,16.5-26.1,29.3-42.5,39.9c-30.7,19.6-64.8,29.3-100.8,33.1c-19.5,2.1-34.8-6.3-43.5-22.9
		C2047.2,3029.6,2042.6,2974.3,2044.3,2958.3z"/>
</g>
</svg>
